<svg xmlns="http://www.w3.org/2000/svg" viewBox="0 0 64 64" width="64" height="64" role="img" aria-label="Ebrostay">
  <defs>
    <linearGradient id="g3" x1="0" y1="0" x2="0" y2="1">
      <stop offset="0" stop-color="#13b878"/>
      <stop offset="1" stop-color="#0a7a54"/>
    </linearGradient>
  </defs>
  <rect width="64" height="64" rx="15" fill="url(#g3)"/>
  <!-- lion columns -->
  <rect x="10.3" y="30" width="2.6" height="10" rx="0.6" fill="#ffffff"/>
  <rect x="51.1" y="30" width="2.6" height="10" rx="0.6" fill="#ffffff"/>
  <rect x="9.4" y="26.4" width="3.4" height="3.4" rx="0.7" fill="#c8f169"/>
  <rect x="50.2" y="26.4" width="3.4" height="3.4" rx="0.7" fill="#c8f169"/>
  <!-- solid stone deck + body with four arch openings -->
  <g fill="#ffffff">
    <rect x="9" y="38.2" width="46" height="3.4" rx="1.7"/>
    <path fill-rule="evenodd" d="M10 41 H54 V47 H10 Z
      M12.5 47 A4 4 0 0 1 20.5 47 Z
      M23 47 A4 4 0 0 1 31 47 Z
      M33 47 A4 4 0 0 1 41 47 Z
      M43.5 47 A4 4 0 0 1 51.5 47 Z"/>
  </g>
  <!-- Ebro river -->
  <rect x="12" y="49.5" width="40" height="3" rx="1.5" fill="#c8f169"/>
</svg>
