<svg xmlns="http://www.w3.org/2000/svg" viewBox="0 0 64 64" width="64" height="64" role="img" aria-label="Ebrostay">
  <rect width="64" height="64" rx="15" fill="#0e9f6e"/>
  <g fill="none" stroke="#ffffff" stroke-width="3.2" stroke-linecap="round" stroke-linejoin="round">
    <!-- lion columns -->
    <path d="M11 40 V29"/>
    <path d="M53 40 V29"/>
    <!-- deck -->
    <path d="M10 40 H54"/>
    <!-- four stone arches -->
    <path d="M10 46 A5.5 5.5 0 0 1 21 46"/>
    <path d="M21 46 A5.5 5.5 0 0 1 32 46"/>
    <path d="M32 46 A5.5 5.5 0 0 1 43 46"/>
    <path d="M43 46 A5.5 5.5 0 0 1 54 46"/>
  </g>
  <rect x="9.2" y="25" width="3.6" height="3.6" rx="0.7" fill="#c8f169"/>
  <rect x="51.2" y="25" width="3.6" height="3.6" rx="0.7" fill="#c8f169"/>
  <line x1="10" y1="46" x2="54" y2="46" stroke="#c8f169" stroke-width="3" stroke-linecap="round"/>
</svg>
