<svg xmlns="http://www.w3.org/2000/svg" viewBox="0 0 64 64" width="64" height="64" role="img" aria-label="Ebrostay">
  <rect width="64" height="64" rx="15" fill="#f3f6f3" stroke="rgba(12,26,20,0.10)" stroke-width="1"/>
  <g fill="none" stroke="#0e9f6e" stroke-width="2.8" stroke-linecap="round" stroke-linejoin="round">
    <!-- lion columns -->
    <path d="M11 40 V30"/>
    <path d="M53 40 V30"/>
    <!-- deck -->
    <path d="M10 40 H54"/>
    <!-- four stone arches -->
    <path d="M10 46 A5.5 5.5 0 0 1 21 46"/>
    <path d="M21 46 A5.5 5.5 0 0 1 32 46"/>
    <path d="M32 46 A5.5 5.5 0 0 1 43 46"/>
    <path d="M43 46 A5.5 5.5 0 0 1 54 46"/>
  </g>
  <rect x="9.4" y="26.4" width="3.2" height="3.2" rx="0.6" fill="#0e9f6e"/>
  <rect x="51.4" y="26.4" width="3.2" height="3.2" rx="0.6" fill="#0e9f6e"/>
  <!-- Ebro river -->
  <line x1="10" y1="46" x2="54" y2="46" stroke="#1c7c9c" stroke-width="2.8" stroke-linecap="round"/>
</svg>
