<svg xmlns="http://www.w3.org/2000/svg" viewBox="0 0 64 64" width="64" height="64" role="img" aria-label="Ebrostay">
  <defs>
    <linearGradient id="g9" x1="0" y1="0" x2="0" y2="1">
      <stop offset="0" stop-color="#13b878"/>
      <stop offset="1" stop-color="#0a7a54"/>
    </linearGradient>
  </defs>
  <rect width="64" height="64" rx="15" fill="url(#g9)"/>
  <!-- El Pilar central dome fused above the bridge -->
  <g fill="#ffffff">
    <path d="M23 34 A9 9 0 0 1 41 34 Z"/>
    <rect x="30.3" y="13" width="3.4" height="8" rx="0.7"/>
    <circle cx="32" cy="12" r="2.3"/>
    <!-- solid deck + body with arch openings -->
    <rect x="9" y="37.5" width="46" height="3.4" rx="1.7"/>
    <path fill-rule="evenodd" d="M10 40.5 H54 V46.5 H10 Z
      M13 46.5 A4 4 0 0 1 21 46.5 Z
      M23.5 46.5 A4 4 0 0 1 31.5 46.5 Z
      M32.5 46.5 A4 4 0 0 1 40.5 46.5 Z
      M43 46.5 A4 4 0 0 1 51 46.5 Z"/>
  </g>
  <!-- Ebro river -->
  <rect x="12" y="49" width="40" height="3" rx="1.5" fill="#c8f169"/>
</svg>
